<?xml version="1.0" encoding="utf-8"?>
<!-- Generator: Adobe Illustrator 22.0.1, SVG Export Plug-In . SVG Version: 6.00 Build 0)  -->
<svg version="1.1" id="Layer_1" xmlns="http://www.w3.org/2000/svg" xmlns:xlink="http://www.w3.org/1999/xlink" x="0px" y="0px"
	 viewBox="0 0 600 600" style="enable-background:new 0 0 600 600;" xml:space="preserve">
<style type="text/css">
	.st0{fill:#3B3B3B;}
</style>
<circle class="st0" cx="300" cy="300" r="300"/>
<g>
	<path d="M460.5,437.4c0,3.1-2,7.1-6.1,12.2c-35.5,42.3-82.7,63.4-141.6,63.4c-60.2,0-109.1-20.6-146.5-61.7
		c-36.5-39.8-54.7-90-54.7-150.6c0-58.7,17.9-108.5,53.6-149.4C202.4,108.5,249.8,87,307.3,87c62.5,0,111.6,19.2,147.1,57.6
		c3.9,4.2,5.8,8,5.8,11.3c0,3.7-6.7,17.3-20.1,40.8c-13.4,23.6-21.9,36.8-25.3,39.7c-1.5,1.5-3.5,2.3-5.8,2.3
		c-1,0-5.8-3.9-14.5-11.6c-10.4-9.3-20.7-16.5-30.7-21.7c-15.3-7.7-31.1-11.6-47.5-11.6c-28.4,0-51.1,10.6-68,31.9
		c-15.6,19.7-23.5,44-23.5,73c0,29.3,7.8,54,23.5,73.8c17,21.6,39.7,32.4,68,32.4c16.8,0,32.7-3.7,47.8-11
		c9.8-4.8,19.9-11.6,30.1-20.3c8.5-7.3,13.2-11,14.2-11c1.9,0,3.9,1.1,5.8,3.2c3.1,3.5,11.5,15.5,25.2,36.2
		C453.4,423.5,460.5,435.3,460.5,437.4z"/>
</g>
</svg>
