<?xml version="1.0" encoding="utf-8"?>
<!-- Generator: Adobe Illustrator 22.0.1, SVG Export Plug-In . SVG Version: 6.00 Build 0)  -->
<svg version="1.1" id="Layer_1" xmlns="http://www.w3.org/2000/svg" xmlns:xlink="http://www.w3.org/1999/xlink" x="0px" y="0px"
	 viewBox="0 0 600 600" style="enable-background:new 0 0 600 600;" xml:space="preserve">
<style type="text/css">
	.st0{fill:#E59D5C;}
</style>
<circle class="st0" cx="300" cy="300" r="300"/>
<g>
	<path d="M463,489.1c0,1.3-1.8,2.2-5.5,2.7c-6.9,1.1-24.3,1.6-52.2,1.6c-23.9,0-40.1-0.5-48.7-1.6c-4-0.5-6.3-1-6.8-1.4
		c-1.1-0.5-2.4-2.4-3.8-5.5c-2.7-7.1-6.7-17.7-12-31.7c-7.1-18.2-18.2-45.1-33.4-80.7c-3.3-7.1-10.8-11-22.7-11.8
		c5.5,0.4-3.9,0.5-28.2,0.5c-2.7,0-4.1,4.6-4.1,13.9c0,12.4,1.1,30.9,3.4,55.5c2.3,24.6,3.4,43.1,3.4,55.5c0,3.1-0.8,4.9-2.5,5.5
		c-2.6,0.2-5.1,0.4-7.7,0.5c-10.8,0.7-27.5,1.1-50.3,1.1c-26.1,0-41.7-0.5-47-1.6c-5.3-1.1-7.9-3.9-7.9-8.5c0-20.1,1-50.3,2.9-90.8
		s2.9-70.8,2.9-91.1c0-77.1-1.7-137.3-5.2-180.5l-0.3-3.8c-0.2-3.1,2.7-5.2,8.6-6.3c5.9-1.1,33.8-2.2,83.5-3.3
		c33.7-0.7,60.6-1.1,80.7-1.1c41.6,0,75.5,9.4,101.7,28.2c29.7,21.1,44.6,51.7,44.6,91.6c0,26.6-3.8,47.9-11.5,63.7
		s-21.8,31.3-42.4,46.2c-4.2,2.9-6.3,5.7-6.3,8.2c0-0.2,11.1,22.7,33.4,68.6C451.8,459,463,484.3,463,489.1z M348.1,243.8
		c0-22.2-7.3-37.6-21.9-46.2c-11.3-6.6-29-9.8-53-9.8c-17.3,0-26.5,2.6-27.6,7.9c-1.1,6.2-1.6,24.1-1.6,53.6
		c0,4.2,0.1,10.4,0.3,18.6c0.2,8.2,0.3,14.3,0.3,18.3c0,0.9,2.9,1.8,8.8,2.7c11.1,1.6,22.8,2.5,35,2.5
		C328.2,291.4,348.1,275.5,348.1,243.8z"/>
</g>
</svg>
