<?xml version="1.0" encoding="utf-8"?>
<!-- Generator: Adobe Illustrator 22.0.1, SVG Export Plug-In . SVG Version: 6.00 Build 0)  -->
<svg version="1.1" id="Layer_1" xmlns="http://www.w3.org/2000/svg" xmlns:xlink="http://www.w3.org/1999/xlink" x="0px" y="0px"
	 viewBox="0 0 600 600" style="enable-background:new 0 0 600 600;" xml:space="preserve">
<style type="text/css">
	.st0{fill:#9D9D9E;}
</style>
<circle class="st0" cx="300" cy="300" r="300"/>
<g>
	<path d="M461.6,353.9c0,46.5-5.6,78.2-16.7,95.2c-20.4,31-71.4,46.5-152.9,46.5c-36.8,0-65.2-2.8-85-8.5
		c-31.7-9.1-52.3-26.5-61.8-52.2c-4.7-12.6-7.1-35-7.1-67.3c0-7.5,0.3-18.6,0.8-33.4s0.8-25.8,0.8-33.1c0-21.1-1-52.9-3-95.2
		c-2-42.3-3-73.9-3-94.9c0-4.4,1.9-6.6,5.7-6.6c11.1,0,27.9,0.5,50.4,1.4c22.5,0.9,39.3,1.4,50.4,1.4c4.6,0,6.8,2,6.8,6
		c0,24.1-0.8,60.1-2.3,108.1c-1.6,48-2.3,84.1-2.3,108.1c0,28.6,3,47.9,9,58c8,13.7,24.8,20.5,50.3,20.5c37.4,0,56.1-18.1,56.1-54.4
		c0-26.4-0.6-66.1-1.9-118.9c-1.3-52.9-1.9-92.5-1.9-118.9c0-5.6,2.3-8.5,6.8-8.5c10.8,0,27-0.5,48.7-1.4
		c21.7-0.9,37.9-1.4,48.7-1.4c5.3,0,7.9,2.2,7.9,6.6c0,21-0.9,52.6-2.6,94.9c-1.7,42.3-2.6,74-2.6,95.2c0,5.8,0.1,14.6,0.3,26.4
		C461.5,339.2,461.6,348,461.6,353.9z"/>
</g>
</svg>
